<svg xmlns="http://www.w3.org/2000/svg" viewBox="0 0 512 512">
  <defs>
    <linearGradient id="bg" x1="0%" y1="50%" x2="100%" y2="50%">
      <stop offset="0%" stop-color="#6b63ff" />
      <stop offset="100%" stop-color="#b45fa4" />
    </linearGradient>
  </defs>
  <rect width="512" height="512" rx="110" fill="url(#bg)" />
  <path
    fill="#f4f4f4"
    d="M116 354c-17 0-30-13-30-30s13-30 30-30c42 0 58-14 79-62 26-59 76-106 143-106 32 0 59 10 79 26-31 11-53 41-53 77 0 52 40 95 91 97 18 1 31 13 31 30 0 16-14 30-31 30h-34c-52 0-89-21-121-71-23 46-73 69-148 69h-36z"
  />
</svg>
